# xmcd
#
# Track frame offsets:
#	150
#	11369
#	23473
#	33011
#	45043
#	57038
#	66909
#	79074
#	88248
#	100807
#
# Disc length: 1508 seconds
#
# Revision: 0
# Processed by: cddbd v1.5.1PL2 Copyright (c) Steve Scherf et al.
# Submitted via: EasyCDDAExtractor 4.6.9.1
#
DISCID=6205e20a
DTITLE=George Jones and Melba Montgomery - Party Pickin'
DYEAR=1967
DGENRE=Country
TTITLE0=Party Pickin'
TTITLE1=The Day I Lose My Mind
TTITLE2=Living On Easy Street
TTITLE3=From Here To The Door
TTITLE4=I'll Be Loving You
TTITLE5=Long Walk Off A Tall Rock
TTITLE6=We Must Have Been Out of Our Minds (Musicor)
TTITLE7=Everybody Ought to Sing A Song
TTITLE8=They Bought The House Next Door
TTITLE9=Let's Live Together
EXTD=
EXTT0=
EXTT1=
EXTT2=
EXTT3=
EXTT4=
EXTT5=
EXTT6=
EXTT7=
EXTT8=
EXTT9=
PLAYORDER=
